<mxfile host="app.diagrams.net" modified="2023-04-02T16:10:55.185Z" agent="Mozilla/5.0 (Macintosh; Intel Mac OS X 10_15_7) AppleWebKit/537.36 (KHTML, like Gecko) Chrome/111.0.0.0 Safari/537.36" etag="TZy9dHO_5cE2Fe-xsRpP" version="21.1.2" type="github" pages="7">
  <diagram id="1JprEtXCutOCYBpSkiVs" name="用例">
    <mxGraphModel dx="955" dy="601" grid="1" gridSize="10" guides="1" tooltips="1" connect="1" arrows="1" fold="1" page="1" pageScale="1" pageWidth="827" pageHeight="1169" math="0" shadow="0">
      <root>
        <mxCell id="0" />
        <mxCell id="1" parent="0" />
        <mxCell id="96LpNB2KM49EBsq5LMlV-1" value="供应链金融" style="shape=umlActor;verticalLabelPosition=bottom;labelBackgroundColor=#ffffff;verticalAlign=top;html=1;outlineConnect=0;" vertex="1" parent="1">
          <mxGeometry x="220" y="390" width="30" height="60" as="geometry" />
        </mxCell>
        <mxCell id="96LpNB2KM49EBsq5LMlV-3" value="借款申请" style="ellipse;whiteSpace=wrap;html=1;fillColor=#FFCCCC;strokeColor=#36393d;" vertex="1" parent="1">
          <mxGeometry x="370" y="270" width="120" height="50" as="geometry" />
        </mxCell>
        <mxCell id="96LpNB2KM49EBsq5LMlV-4" value="借款结果查询" style="ellipse;whiteSpace=wrap;html=1;fillColor=#FFCCCC;strokeColor=#36393d;" vertex="1" parent="1">
          <mxGeometry x="370" y="380" width="120" height="50" as="geometry" />
        </mxCell>
        <mxCell id="96LpNB2KM49EBsq5LMlV-5" value="借款结果查询" style="ellipse;whiteSpace=wrap;html=1;fillColor=#FFCCCC;strokeColor=#36393d;" vertex="1" parent="1">
          <mxGeometry x="370" y="480" width="120" height="50" as="geometry" />
        </mxCell>
        <mxCell id="96LpNB2KM49EBsq5LMlV-7" value="" style="endArrow=classic;html=1;rounded=0;entryX=0;entryY=1;entryDx=0;entryDy=0;" edge="1" parent="1" source="96LpNB2KM49EBsq5LMlV-1" target="96LpNB2KM49EBsq5LMlV-3">
          <mxGeometry width="50" height="50" relative="1" as="geometry">
            <mxPoint x="400" y="450" as="sourcePoint" />
            <mxPoint x="450" y="400" as="targetPoint" />
          </mxGeometry>
        </mxCell>
        <mxCell id="96LpNB2KM49EBsq5LMlV-8" value="" style="endArrow=classic;html=1;rounded=0;entryX=0;entryY=0.5;entryDx=0;entryDy=0;exitX=1;exitY=0.3333333333333333;exitDx=0;exitDy=0;exitPerimeter=0;" edge="1" parent="1" source="96LpNB2KM49EBsq5LMlV-1" target="96LpNB2KM49EBsq5LMlV-4">
          <mxGeometry width="50" height="50" relative="1" as="geometry">
            <mxPoint x="260" y="419" as="sourcePoint" />
            <mxPoint x="397" y="323" as="targetPoint" />
          </mxGeometry>
        </mxCell>
        <mxCell id="96LpNB2KM49EBsq5LMlV-9" value="" style="endArrow=classic;html=1;rounded=0;entryX=0;entryY=0.5;entryDx=0;entryDy=0;" edge="1" parent="1" target="96LpNB2KM49EBsq5LMlV-5">
          <mxGeometry width="50" height="50" relative="1" as="geometry">
            <mxPoint x="250" y="410" as="sourcePoint" />
            <mxPoint x="380" y="415" as="targetPoint" />
          </mxGeometry>
        </mxCell>
      </root>
    </mxGraphModel>
  </diagram>
  <diagram name="数据模型" id="6-SWjBNbYF1UBRRyzqcM">
    <mxGraphModel dx="1194" dy="751" grid="1" gridSize="10" guides="1" tooltips="1" connect="1" arrows="1" fold="1" page="1" pageScale="1" pageWidth="827" pageHeight="1169" math="0" shadow="0">
      <root>
        <mxCell id="0" />
        <mxCell id="1" parent="0" />
        <mxCell id="3sVQ8dFZ3M76Ev0TA8Bt-1" value="逾期记录表(t_overdue_order)" style="shape=table;html=1;whiteSpace=wrap;startSize=30;container=1;collapsible=0;childLayout=tableLayout;fixedRows=1;rowLines=0;fontStyle=1;align=center;" parent="1" vertex="1">
          <mxGeometry x="170" y="150" width="300" height="630" as="geometry" />
        </mxCell>
        <mxCell id="3sVQ8dFZ3M76Ev0TA8Bt-2" value="" style="shape=partialRectangle;html=1;whiteSpace=wrap;collapsible=0;dropTarget=0;pointerEvents=0;fillColor=none;top=0;left=0;bottom=1;right=0;points=[[0,0.5],[1,0.5]];portConstraint=eastwest;" parent="3sVQ8dFZ3M76Ev0TA8Bt-1" vertex="1">
          <mxGeometry y="30" width="300" height="30" as="geometry" />
        </mxCell>
        <mxCell id="3sVQ8dFZ3M76Ev0TA8Bt-3" value="1" style="shape=partialRectangle;html=1;whiteSpace=wrap;connectable=0;fillColor=none;top=0;left=0;bottom=0;right=0;overflow=hidden;" parent="3sVQ8dFZ3M76Ev0TA8Bt-2" vertex="1">
          <mxGeometry width="40" height="30" as="geometry">
            <mxRectangle width="40" height="30" as="alternateBounds" />
          </mxGeometry>
        </mxCell>
        <mxCell id="3sVQ8dFZ3M76Ev0TA8Bt-4" value="id 主键id" style="shape=partialRectangle;html=1;whiteSpace=wrap;connectable=0;fillColor=none;top=0;left=0;bottom=0;right=0;align=left;spacingLeft=6;overflow=hidden;" parent="3sVQ8dFZ3M76Ev0TA8Bt-2" vertex="1">
          <mxGeometry x="40" width="260" height="30" as="geometry">
            <mxRectangle width="260" height="30" as="alternateBounds" />
          </mxGeometry>
        </mxCell>
        <mxCell id="3sVQ8dFZ3M76Ev0TA8Bt-5" value="" style="shape=partialRectangle;html=1;whiteSpace=wrap;collapsible=0;dropTarget=0;pointerEvents=0;fillColor=none;top=0;left=0;bottom=0;right=0;points=[[0,0.5],[1,0.5]];portConstraint=eastwest;" parent="3sVQ8dFZ3M76Ev0TA8Bt-1" vertex="1">
          <mxGeometry y="60" width="300" height="30" as="geometry" />
        </mxCell>
        <mxCell id="3sVQ8dFZ3M76Ev0TA8Bt-6" value="2" style="shape=partialRectangle;html=1;whiteSpace=wrap;connectable=0;fillColor=none;top=0;left=0;bottom=0;right=0;overflow=hidden;" parent="3sVQ8dFZ3M76Ev0TA8Bt-5" vertex="1">
          <mxGeometry width="40" height="30" as="geometry">
            <mxRectangle width="40" height="30" as="alternateBounds" />
          </mxGeometry>
        </mxCell>
        <mxCell id="3sVQ8dFZ3M76Ev0TA8Bt-7" value="&lt;span&gt;loan_ar_no&lt;/span&gt;&amp;nbsp;场景编号(&lt;span&gt;合约号&lt;/span&gt;)" style="shape=partialRectangle;html=1;whiteSpace=wrap;connectable=0;fillColor=none;top=0;left=0;bottom=0;right=0;align=left;spacingLeft=6;overflow=hidden;" parent="3sVQ8dFZ3M76Ev0TA8Bt-5" vertex="1">
          <mxGeometry x="40" width="260" height="30" as="geometry">
            <mxRectangle width="260" height="30" as="alternateBounds" />
          </mxGeometry>
        </mxCell>
        <mxCell id="3sVQ8dFZ3M76Ev0TA8Bt-8" value="" style="shape=partialRectangle;html=1;whiteSpace=wrap;collapsible=0;dropTarget=0;pointerEvents=0;fillColor=none;top=0;left=0;bottom=0;right=0;points=[[0,0.5],[1,0.5]];portConstraint=eastwest;" parent="3sVQ8dFZ3M76Ev0TA8Bt-1" vertex="1">
          <mxGeometry y="90" width="300" height="30" as="geometry" />
        </mxCell>
        <mxCell id="3sVQ8dFZ3M76Ev0TA8Bt-9" value="3" style="shape=partialRectangle;html=1;whiteSpace=wrap;connectable=0;fillColor=none;top=0;left=0;bottom=0;right=0;overflow=hidden;" parent="3sVQ8dFZ3M76Ev0TA8Bt-8" vertex="1">
          <mxGeometry width="40" height="30" as="geometry">
            <mxRectangle width="40" height="30" as="alternateBounds" />
          </mxGeometry>
        </mxCell>
        <mxCell id="3sVQ8dFZ3M76Ev0TA8Bt-10" value="&lt;span&gt;settle_date&lt;/span&gt;&amp;nbsp;&lt;span&gt;会计时间—发起者⽣成的时间&lt;/span&gt;" style="shape=partialRectangle;html=1;whiteSpace=wrap;connectable=0;fillColor=none;top=0;left=0;bottom=0;right=0;align=left;spacingLeft=6;overflow=hidden;" parent="3sVQ8dFZ3M76Ev0TA8Bt-8" vertex="1">
          <mxGeometry x="40" width="260" height="30" as="geometry">
            <mxRectangle width="260" height="30" as="alternateBounds" />
          </mxGeometry>
        </mxCell>
        <mxCell id="3sVQ8dFZ3M76Ev0TA8Bt-11" value="" style="shape=partialRectangle;html=1;whiteSpace=wrap;collapsible=0;dropTarget=0;pointerEvents=0;fillColor=none;top=0;left=0;bottom=0;right=0;points=[[0,0.5],[1,0.5]];portConstraint=eastwest;" parent="3sVQ8dFZ3M76Ev0TA8Bt-1" vertex="1">
          <mxGeometry y="120" width="300" height="30" as="geometry" />
        </mxCell>
        <mxCell id="3sVQ8dFZ3M76Ev0TA8Bt-12" value="4" style="shape=partialRectangle;html=1;whiteSpace=wrap;connectable=0;fillColor=none;top=0;left=0;bottom=0;right=0;overflow=hidden;" parent="3sVQ8dFZ3M76Ev0TA8Bt-11" vertex="1">
          <mxGeometry width="40" height="30" as="geometry">
            <mxRectangle width="40" height="30" as="alternateBounds" />
          </mxGeometry>
        </mxCell>
        <mxCell id="3sVQ8dFZ3M76Ev0TA8Bt-13" value="&lt;span&gt;total_amt&lt;/span&gt;&amp;nbsp;&lt;span&gt;总发⽣⾦额&lt;/span&gt;" style="shape=partialRectangle;html=1;whiteSpace=wrap;connectable=0;fillColor=none;top=0;left=0;bottom=0;right=0;align=left;spacingLeft=6;overflow=hidden;" parent="3sVQ8dFZ3M76Ev0TA8Bt-11" vertex="1">
          <mxGeometry x="40" width="260" height="30" as="geometry">
            <mxRectangle width="260" height="30" as="alternateBounds" />
          </mxGeometry>
        </mxCell>
        <mxCell id="3sVQ8dFZ3M76Ev0TA8Bt-14" value="" style="shape=partialRectangle;html=1;whiteSpace=wrap;collapsible=0;dropTarget=0;pointerEvents=0;fillColor=none;top=0;left=0;bottom=0;right=0;points=[[0,0.5],[1,0.5]];portConstraint=eastwest;" parent="3sVQ8dFZ3M76Ev0TA8Bt-1" vertex="1">
          <mxGeometry y="150" width="300" height="30" as="geometry" />
        </mxCell>
        <mxCell id="3sVQ8dFZ3M76Ev0TA8Bt-15" value="5" style="shape=partialRectangle;html=1;whiteSpace=wrap;connectable=0;fillColor=none;top=0;left=0;bottom=0;right=0;overflow=hidden;" parent="3sVQ8dFZ3M76Ev0TA8Bt-14" vertex="1">
          <mxGeometry width="40" height="30" as="geometry">
            <mxRectangle width="40" height="30" as="alternateBounds" />
          </mxGeometry>
        </mxCell>
        <mxCell id="3sVQ8dFZ3M76Ev0TA8Bt-16" value="&lt;span&gt;prin_amt&lt;/span&gt;&amp;nbsp;&lt;span&gt;本⾦发⽣额&lt;/span&gt;" style="shape=partialRectangle;html=1;whiteSpace=wrap;connectable=0;fillColor=none;top=0;left=0;bottom=0;right=0;align=left;spacingLeft=6;overflow=hidden;" parent="3sVQ8dFZ3M76Ev0TA8Bt-14" vertex="1">
          <mxGeometry x="40" width="260" height="30" as="geometry">
            <mxRectangle width="260" height="30" as="alternateBounds" />
          </mxGeometry>
        </mxCell>
        <mxCell id="3sVQ8dFZ3M76Ev0TA8Bt-17" value="" style="shape=partialRectangle;html=1;whiteSpace=wrap;collapsible=0;dropTarget=0;pointerEvents=0;fillColor=none;top=0;left=0;bottom=0;right=0;points=[[0,0.5],[1,0.5]];portConstraint=eastwest;" parent="3sVQ8dFZ3M76Ev0TA8Bt-1" vertex="1">
          <mxGeometry y="180" width="300" height="30" as="geometry" />
        </mxCell>
        <mxCell id="3sVQ8dFZ3M76Ev0TA8Bt-18" value="6" style="shape=partialRectangle;html=1;whiteSpace=wrap;connectable=0;fillColor=none;top=0;left=0;bottom=0;right=0;overflow=hidden;" parent="3sVQ8dFZ3M76Ev0TA8Bt-17" vertex="1">
          <mxGeometry width="40" height="30" as="geometry">
            <mxRectangle width="40" height="30" as="alternateBounds" />
          </mxGeometry>
        </mxCell>
        <mxCell id="3sVQ8dFZ3M76Ev0TA8Bt-19" value="&lt;span&gt;int_amt&amp;nbsp;&amp;nbsp;&lt;/span&gt;&lt;span&gt;利息发⽣额&lt;/span&gt;" style="shape=partialRectangle;html=1;whiteSpace=wrap;connectable=0;fillColor=none;top=0;left=0;bottom=0;right=0;align=left;spacingLeft=6;overflow=hidden;" parent="3sVQ8dFZ3M76Ev0TA8Bt-17" vertex="1">
          <mxGeometry x="40" width="260" height="30" as="geometry">
            <mxRectangle width="260" height="30" as="alternateBounds" />
          </mxGeometry>
        </mxCell>
        <mxCell id="3sVQ8dFZ3M76Ev0TA8Bt-20" value="" style="shape=partialRectangle;html=1;whiteSpace=wrap;collapsible=0;dropTarget=0;pointerEvents=0;fillColor=none;top=0;left=0;bottom=0;right=0;points=[[0,0.5],[1,0.5]];portConstraint=eastwest;" parent="3sVQ8dFZ3M76Ev0TA8Bt-1" vertex="1">
          <mxGeometry y="210" width="300" height="30" as="geometry" />
        </mxCell>
        <mxCell id="3sVQ8dFZ3M76Ev0TA8Bt-21" value="7" style="shape=partialRectangle;html=1;whiteSpace=wrap;connectable=0;fillColor=none;top=0;left=0;bottom=0;right=0;overflow=hidden;" parent="3sVQ8dFZ3M76Ev0TA8Bt-20" vertex="1">
          <mxGeometry width="40" height="30" as="geometry">
            <mxRectangle width="40" height="30" as="alternateBounds" />
          </mxGeometry>
        </mxCell>
        <mxCell id="3sVQ8dFZ3M76Ev0TA8Bt-22" value="&lt;span&gt;ovd_prin_amt&lt;/span&gt;&amp;nbsp;&lt;span&gt;逾期本⾦发⽣额&lt;/span&gt;" style="shape=partialRectangle;html=1;whiteSpace=wrap;connectable=0;fillColor=none;top=0;left=0;bottom=0;right=0;align=left;spacingLeft=6;overflow=hidden;" parent="3sVQ8dFZ3M76Ev0TA8Bt-20" vertex="1">
          <mxGeometry x="40" width="260" height="30" as="geometry">
            <mxRectangle width="260" height="30" as="alternateBounds" />
          </mxGeometry>
        </mxCell>
        <mxCell id="3sVQ8dFZ3M76Ev0TA8Bt-23" value="" style="shape=partialRectangle;html=1;whiteSpace=wrap;collapsible=0;dropTarget=0;pointerEvents=0;fillColor=none;top=0;left=0;bottom=0;right=0;points=[[0,0.5],[1,0.5]];portConstraint=eastwest;" parent="3sVQ8dFZ3M76Ev0TA8Bt-1" vertex="1">
          <mxGeometry y="240" width="300" height="30" as="geometry" />
        </mxCell>
        <mxCell id="3sVQ8dFZ3M76Ev0TA8Bt-24" value="8" style="shape=partialRectangle;html=1;whiteSpace=wrap;connectable=0;fillColor=none;top=0;left=0;bottom=0;right=0;overflow=hidden;" parent="3sVQ8dFZ3M76Ev0TA8Bt-23" vertex="1">
          <mxGeometry width="40" height="30" as="geometry">
            <mxRectangle width="40" height="30" as="alternateBounds" />
          </mxGeometry>
        </mxCell>
        <mxCell id="3sVQ8dFZ3M76Ev0TA8Bt-25" value="&lt;span&gt;ovd_int_amt&amp;nbsp;&amp;nbsp;&lt;/span&gt;&lt;span&gt;逾期利息发⽣额&lt;/span&gt;" style="shape=partialRectangle;html=1;whiteSpace=wrap;connectable=0;fillColor=none;top=0;left=0;bottom=0;right=0;align=left;spacingLeft=6;overflow=hidden;" parent="3sVQ8dFZ3M76Ev0TA8Bt-23" vertex="1">
          <mxGeometry x="40" width="260" height="30" as="geometry">
            <mxRectangle width="260" height="30" as="alternateBounds" />
          </mxGeometry>
        </mxCell>
        <mxCell id="3sVQ8dFZ3M76Ev0TA8Bt-26" value="" style="shape=partialRectangle;html=1;whiteSpace=wrap;collapsible=0;dropTarget=0;pointerEvents=0;fillColor=none;top=0;left=0;bottom=0;right=0;points=[[0,0.5],[1,0.5]];portConstraint=eastwest;" parent="3sVQ8dFZ3M76Ev0TA8Bt-1" vertex="1">
          <mxGeometry y="270" width="300" height="30" as="geometry" />
        </mxCell>
        <mxCell id="3sVQ8dFZ3M76Ev0TA8Bt-27" value="9" style="shape=partialRectangle;html=1;whiteSpace=wrap;connectable=0;fillColor=none;top=0;left=0;bottom=0;right=0;overflow=hidden;" parent="3sVQ8dFZ3M76Ev0TA8Bt-26" vertex="1">
          <mxGeometry width="40" height="30" as="geometry">
            <mxRectangle width="40" height="30" as="alternateBounds" />
          </mxGeometry>
        </mxCell>
        <mxCell id="3sVQ8dFZ3M76Ev0TA8Bt-28" value="&lt;span&gt;ovd_prin_penalty_amt&amp;nbsp;&lt;/span&gt;&lt;span&gt;逾期本罚发⽣额 &lt;/span&gt;" style="shape=partialRectangle;html=1;whiteSpace=wrap;connectable=0;fillColor=none;top=0;left=0;bottom=0;right=0;align=left;spacingLeft=6;overflow=hidden;" parent="3sVQ8dFZ3M76Ev0TA8Bt-26" vertex="1">
          <mxGeometry x="40" width="260" height="30" as="geometry">
            <mxRectangle width="260" height="30" as="alternateBounds" />
          </mxGeometry>
        </mxCell>
        <mxCell id="3sVQ8dFZ3M76Ev0TA8Bt-29" value="" style="shape=partialRectangle;html=1;whiteSpace=wrap;collapsible=0;dropTarget=0;pointerEvents=0;fillColor=none;top=0;left=0;bottom=0;right=0;points=[[0,0.5],[1,0.5]];portConstraint=eastwest;" parent="3sVQ8dFZ3M76Ev0TA8Bt-1" vertex="1">
          <mxGeometry y="300" width="300" height="30" as="geometry" />
        </mxCell>
        <mxCell id="3sVQ8dFZ3M76Ev0TA8Bt-30" value="10" style="shape=partialRectangle;html=1;whiteSpace=wrap;connectable=0;fillColor=none;top=0;left=0;bottom=0;right=0;overflow=hidden;" parent="3sVQ8dFZ3M76Ev0TA8Bt-29" vertex="1">
          <mxGeometry width="40" height="30" as="geometry">
            <mxRectangle width="40" height="30" as="alternateBounds" />
          </mxGeometry>
        </mxCell>
        <mxCell id="3sVQ8dFZ3M76Ev0TA8Bt-31" value="&lt;span&gt;ovd_int_penalty_amt&amp;nbsp;&lt;/span&gt;&lt;span&gt;逾期利罚发⽣额&lt;/span&gt;" style="shape=partialRectangle;html=1;whiteSpace=wrap;connectable=0;fillColor=none;top=0;left=0;bottom=0;right=0;align=left;spacingLeft=6;overflow=hidden;" parent="3sVQ8dFZ3M76Ev0TA8Bt-29" vertex="1">
          <mxGeometry x="40" width="260" height="30" as="geometry">
            <mxRectangle width="260" height="30" as="alternateBounds" />
          </mxGeometry>
        </mxCell>
        <mxCell id="3sVQ8dFZ3M76Ev0TA8Bt-32" value="" style="shape=partialRectangle;html=1;whiteSpace=wrap;collapsible=0;dropTarget=0;pointerEvents=0;fillColor=none;top=0;left=0;bottom=0;right=0;points=[[0,0.5],[1,0.5]];portConstraint=eastwest;" parent="3sVQ8dFZ3M76Ev0TA8Bt-1" vertex="1">
          <mxGeometry y="330" width="300" height="30" as="geometry" />
        </mxCell>
        <mxCell id="3sVQ8dFZ3M76Ev0TA8Bt-33" value="11" style="shape=partialRectangle;html=1;whiteSpace=wrap;connectable=0;fillColor=none;top=0;left=0;bottom=0;right=0;overflow=hidden;" parent="3sVQ8dFZ3M76Ev0TA8Bt-32" vertex="1">
          <mxGeometry width="40" height="30" as="geometry">
            <mxRectangle width="40" height="30" as="alternateBounds" />
          </mxGeometry>
        </mxCell>
        <mxCell id="3sVQ8dFZ3M76Ev0TA8Bt-34" value="&lt;span&gt;prin_bal&lt;/span&gt;&lt;span&gt;&amp;nbsp;&lt;/span&gt;&lt;span&gt;本⾦余额&lt;/span&gt;" style="shape=partialRectangle;html=1;whiteSpace=wrap;connectable=0;fillColor=none;top=0;left=0;bottom=0;right=0;align=left;spacingLeft=6;overflow=hidden;" parent="3sVQ8dFZ3M76Ev0TA8Bt-32" vertex="1">
          <mxGeometry x="40" width="260" height="30" as="geometry">
            <mxRectangle width="260" height="30" as="alternateBounds" />
          </mxGeometry>
        </mxCell>
        <mxCell id="3sVQ8dFZ3M76Ev0TA8Bt-35" value="" style="shape=partialRectangle;html=1;whiteSpace=wrap;collapsible=0;dropTarget=0;pointerEvents=0;fillColor=none;top=0;left=0;bottom=0;right=0;points=[[0,0.5],[1,0.5]];portConstraint=eastwest;" parent="3sVQ8dFZ3M76Ev0TA8Bt-1" vertex="1">
          <mxGeometry y="360" width="300" height="30" as="geometry" />
        </mxCell>
        <mxCell id="3sVQ8dFZ3M76Ev0TA8Bt-36" value="12" style="shape=partialRectangle;html=1;whiteSpace=wrap;connectable=0;fillColor=none;top=0;left=0;bottom=0;right=0;overflow=hidden;" parent="3sVQ8dFZ3M76Ev0TA8Bt-35" vertex="1">
          <mxGeometry width="40" height="30" as="geometry">
            <mxRectangle width="40" height="30" as="alternateBounds" />
          </mxGeometry>
        </mxCell>
        <mxCell id="3sVQ8dFZ3M76Ev0TA8Bt-37" value="&lt;span&gt;int_bal&lt;/span&gt;&lt;span&gt;&amp;nbsp;&lt;/span&gt;&lt;span&gt;利息余额&lt;/span&gt;" style="shape=partialRectangle;html=1;whiteSpace=wrap;connectable=0;fillColor=none;top=0;left=0;bottom=0;right=0;align=left;spacingLeft=6;overflow=hidden;" parent="3sVQ8dFZ3M76Ev0TA8Bt-35" vertex="1">
          <mxGeometry x="40" width="260" height="30" as="geometry">
            <mxRectangle width="260" height="30" as="alternateBounds" />
          </mxGeometry>
        </mxCell>
        <mxCell id="3sVQ8dFZ3M76Ev0TA8Bt-38" value="" style="shape=partialRectangle;html=1;whiteSpace=wrap;collapsible=0;dropTarget=0;pointerEvents=0;fillColor=none;top=0;left=0;bottom=0;right=0;points=[[0,0.5],[1,0.5]];portConstraint=eastwest;" parent="3sVQ8dFZ3M76Ev0TA8Bt-1" vertex="1">
          <mxGeometry y="390" width="300" height="30" as="geometry" />
        </mxCell>
        <mxCell id="3sVQ8dFZ3M76Ev0TA8Bt-39" value="13" style="shape=partialRectangle;html=1;whiteSpace=wrap;connectable=0;fillColor=none;top=0;left=0;bottom=0;right=0;overflow=hidden;" parent="3sVQ8dFZ3M76Ev0TA8Bt-38" vertex="1">
          <mxGeometry width="40" height="30" as="geometry">
            <mxRectangle width="40" height="30" as="alternateBounds" />
          </mxGeometry>
        </mxCell>
        <mxCell id="3sVQ8dFZ3M76Ev0TA8Bt-40" value="&lt;span&gt;ovd_prin_bal&lt;/span&gt;&lt;span&gt;&amp;nbsp;&lt;/span&gt;&lt;span&gt;逾期本⾦余额&lt;/span&gt;" style="shape=partialRectangle;html=1;whiteSpace=wrap;connectable=0;fillColor=none;top=0;left=0;bottom=0;right=0;align=left;spacingLeft=6;overflow=hidden;" parent="3sVQ8dFZ3M76Ev0TA8Bt-38" vertex="1">
          <mxGeometry x="40" width="260" height="30" as="geometry">
            <mxRectangle width="260" height="30" as="alternateBounds" />
          </mxGeometry>
        </mxCell>
        <mxCell id="3sVQ8dFZ3M76Ev0TA8Bt-41" value="" style="shape=partialRectangle;html=1;whiteSpace=wrap;collapsible=0;dropTarget=0;pointerEvents=0;fillColor=none;top=0;left=0;bottom=0;right=0;points=[[0,0.5],[1,0.5]];portConstraint=eastwest;" parent="3sVQ8dFZ3M76Ev0TA8Bt-1" vertex="1">
          <mxGeometry y="420" width="300" height="30" as="geometry" />
        </mxCell>
        <mxCell id="3sVQ8dFZ3M76Ev0TA8Bt-42" value="14" style="shape=partialRectangle;html=1;whiteSpace=wrap;connectable=0;fillColor=none;top=0;left=0;bottom=0;right=0;overflow=hidden;" parent="3sVQ8dFZ3M76Ev0TA8Bt-41" vertex="1">
          <mxGeometry width="40" height="30" as="geometry">
            <mxRectangle width="40" height="30" as="alternateBounds" />
          </mxGeometry>
        </mxCell>
        <mxCell id="3sVQ8dFZ3M76Ev0TA8Bt-43" value="&lt;span&gt;ovd_int_bal&lt;/span&gt;&lt;span&gt;&amp;nbsp;&lt;/span&gt;&lt;span&gt;逾期利息余额&lt;/span&gt;" style="shape=partialRectangle;html=1;whiteSpace=wrap;connectable=0;fillColor=none;top=0;left=0;bottom=0;right=0;align=left;spacingLeft=6;overflow=hidden;" parent="3sVQ8dFZ3M76Ev0TA8Bt-41" vertex="1">
          <mxGeometry x="40" width="260" height="30" as="geometry">
            <mxRectangle width="260" height="30" as="alternateBounds" />
          </mxGeometry>
        </mxCell>
        <mxCell id="3sVQ8dFZ3M76Ev0TA8Bt-44" value="" style="shape=partialRectangle;html=1;whiteSpace=wrap;collapsible=0;dropTarget=0;pointerEvents=0;fillColor=none;top=0;left=0;bottom=0;right=0;points=[[0,0.5],[1,0.5]];portConstraint=eastwest;" parent="3sVQ8dFZ3M76Ev0TA8Bt-1" vertex="1">
          <mxGeometry y="450" width="300" height="30" as="geometry" />
        </mxCell>
        <mxCell id="3sVQ8dFZ3M76Ev0TA8Bt-45" value="15" style="shape=partialRectangle;html=1;whiteSpace=wrap;connectable=0;fillColor=none;top=0;left=0;bottom=0;right=0;overflow=hidden;" parent="3sVQ8dFZ3M76Ev0TA8Bt-44" vertex="1">
          <mxGeometry width="40" height="30" as="geometry">
            <mxRectangle width="40" height="30" as="alternateBounds" />
          </mxGeometry>
        </mxCell>
        <mxCell id="3sVQ8dFZ3M76Ev0TA8Bt-46" value="&lt;span&gt;ovd_prin_penalty_bal&lt;/span&gt;&lt;span&gt;&amp;nbsp;&lt;/span&gt;&lt;span&gt;逾期本罚余额&lt;/span&gt;" style="shape=partialRectangle;html=1;whiteSpace=wrap;connectable=0;fillColor=none;top=0;left=0;bottom=0;right=0;align=left;spacingLeft=6;overflow=hidden;" parent="3sVQ8dFZ3M76Ev0TA8Bt-44" vertex="1">
          <mxGeometry x="40" width="260" height="30" as="geometry">
            <mxRectangle width="260" height="30" as="alternateBounds" />
          </mxGeometry>
        </mxCell>
        <mxCell id="3sVQ8dFZ3M76Ev0TA8Bt-47" value="" style="shape=partialRectangle;html=1;whiteSpace=wrap;collapsible=0;dropTarget=0;pointerEvents=0;fillColor=none;top=0;left=0;bottom=0;right=0;points=[[0,0.5],[1,0.5]];portConstraint=eastwest;" parent="3sVQ8dFZ3M76Ev0TA8Bt-1" vertex="1">
          <mxGeometry y="480" width="300" height="30" as="geometry" />
        </mxCell>
        <mxCell id="3sVQ8dFZ3M76Ev0TA8Bt-48" value="16" style="shape=partialRectangle;html=1;whiteSpace=wrap;connectable=0;fillColor=none;top=0;left=0;bottom=0;right=0;overflow=hidden;" parent="3sVQ8dFZ3M76Ev0TA8Bt-47" vertex="1">
          <mxGeometry width="40" height="30" as="geometry">
            <mxRectangle width="40" height="30" as="alternateBounds" />
          </mxGeometry>
        </mxCell>
        <mxCell id="3sVQ8dFZ3M76Ev0TA8Bt-49" value="&lt;span&gt;ovd_int_penalty_bal&lt;/span&gt;&lt;span&gt;&amp;nbsp;&lt;/span&gt;&lt;span&gt;逾期利罚余额&lt;/span&gt;" style="shape=partialRectangle;html=1;whiteSpace=wrap;connectable=0;fillColor=none;top=0;left=0;bottom=0;right=0;align=left;spacingLeft=6;overflow=hidden;" parent="3sVQ8dFZ3M76Ev0TA8Bt-47" vertex="1">
          <mxGeometry x="40" width="260" height="30" as="geometry">
            <mxRectangle width="260" height="30" as="alternateBounds" />
          </mxGeometry>
        </mxCell>
        <mxCell id="3sVQ8dFZ3M76Ev0TA8Bt-50" value="" style="shape=partialRectangle;html=1;whiteSpace=wrap;collapsible=0;dropTarget=0;pointerEvents=0;fillColor=none;top=0;left=0;bottom=0;right=0;points=[[0,0.5],[1,0.5]];portConstraint=eastwest;" parent="3sVQ8dFZ3M76Ev0TA8Bt-1" vertex="1">
          <mxGeometry y="510" width="300" height="30" as="geometry" />
        </mxCell>
        <mxCell id="3sVQ8dFZ3M76Ev0TA8Bt-51" value="17" style="shape=partialRectangle;html=1;whiteSpace=wrap;connectable=0;fillColor=none;top=0;left=0;bottom=0;right=0;overflow=hidden;" parent="3sVQ8dFZ3M76Ev0TA8Bt-50" vertex="1">
          <mxGeometry width="40" height="30" as="geometry">
            <mxRectangle width="40" height="30" as="alternateBounds" />
          </mxGeometry>
        </mxCell>
        <mxCell id="3sVQ8dFZ3M76Ev0TA8Bt-52" value="&lt;span&gt;cust_id&lt;/span&gt;&lt;span&gt;&amp;nbsp;&lt;/span&gt;&lt;span&gt;经销商编号&lt;/span&gt;" style="shape=partialRectangle;html=1;whiteSpace=wrap;connectable=0;fillColor=none;top=0;left=0;bottom=0;right=0;align=left;spacingLeft=6;overflow=hidden;" parent="3sVQ8dFZ3M76Ev0TA8Bt-50" vertex="1">
          <mxGeometry x="40" width="260" height="30" as="geometry">
            <mxRectangle width="260" height="30" as="alternateBounds" />
          </mxGeometry>
        </mxCell>
        <mxCell id="3sVQ8dFZ3M76Ev0TA8Bt-53" value="" style="shape=partialRectangle;html=1;whiteSpace=wrap;collapsible=0;dropTarget=0;pointerEvents=0;fillColor=none;top=0;left=0;bottom=0;right=0;points=[[0,0.5],[1,0.5]];portConstraint=eastwest;" parent="3sVQ8dFZ3M76Ev0TA8Bt-1" vertex="1">
          <mxGeometry y="540" width="300" height="30" as="geometry" />
        </mxCell>
        <mxCell id="3sVQ8dFZ3M76Ev0TA8Bt-54" value="18" style="shape=partialRectangle;html=1;whiteSpace=wrap;connectable=0;fillColor=none;top=0;left=0;bottom=0;right=0;overflow=hidden;" parent="3sVQ8dFZ3M76Ev0TA8Bt-53" vertex="1">
          <mxGeometry width="40" height="30" as="geometry">
            <mxRectangle width="40" height="30" as="alternateBounds" />
          </mxGeometry>
        </mxCell>
        <mxCell id="3sVQ8dFZ3M76Ev0TA8Bt-55" value="&lt;span&gt;ovd_days&lt;/span&gt;&lt;span&gt;&amp;nbsp;&lt;/span&gt;&lt;span&gt;逾期天数&lt;/span&gt;" style="shape=partialRectangle;html=1;whiteSpace=wrap;connectable=0;fillColor=none;top=0;left=0;bottom=0;right=0;align=left;spacingLeft=6;overflow=hidden;" parent="3sVQ8dFZ3M76Ev0TA8Bt-53" vertex="1">
          <mxGeometry x="40" width="260" height="30" as="geometry">
            <mxRectangle width="260" height="30" as="alternateBounds" />
          </mxGeometry>
        </mxCell>
      </root>
    </mxGraphModel>
  </diagram>
  <diagram id="x2tjO4KKbQZCdMAJK7Y2" name="借款申请">
    <mxGraphModel dx="995" dy="626" grid="1" gridSize="10" guides="1" tooltips="1" connect="1" arrows="1" fold="1" page="1" pageScale="1" pageWidth="827" pageHeight="1169" math="0" shadow="0">
      <root>
        <mxCell id="0" />
        <mxCell id="1" parent="0" />
        <mxCell id="4wMntyXqbNmmh1sVlkXW-1" value="借款申请" style="swimlane;html=1;childLayout=stackLayout;resizeParent=1;resizeParentMax=0;startSize=20;" parent="1" vertex="1">
          <mxGeometry x="10" y="30" width="1020" height="1450" as="geometry" />
        </mxCell>
        <mxCell id="4wMntyXqbNmmh1sVlkXW-2" value="和动力" style="swimlane;html=1;startSize=20;" parent="4wMntyXqbNmmh1sVlkXW-1" vertex="1">
          <mxGeometry y="20" width="250" height="1430" as="geometry" />
        </mxCell>
        <mxCell id="4wMntyXqbNmmh1sVlkXW-3" value="开始" style="ellipse;whiteSpace=wrap;html=1;" parent="4wMntyXqbNmmh1sVlkXW-2" vertex="1">
          <mxGeometry x="58.75" y="70" width="92.5" height="50" as="geometry" />
        </mxCell>
        <mxCell id="4wMntyXqbNmmh1sVlkXW-4" value="借款申请" style="whiteSpace=wrap;html=1;" parent="4wMntyXqbNmmh1sVlkXW-2" vertex="1">
          <mxGeometry x="52.5" y="150" width="105" height="50" as="geometry" />
        </mxCell>
        <mxCell id="4wMntyXqbNmmh1sVlkXW-5" value="" style="edgeStyle=orthogonalEdgeStyle;rounded=0;orthogonalLoop=1;jettySize=auto;html=1;" parent="4wMntyXqbNmmh1sVlkXW-2" source="4wMntyXqbNmmh1sVlkXW-3" target="4wMntyXqbNmmh1sVlkXW-4" edge="1">
          <mxGeometry relative="1" as="geometry" />
        </mxCell>
        <mxCell id="QsdAMPa55JvfObeUrHbz-53" style="edgeStyle=orthogonalEdgeStyle;rounded=0;orthogonalLoop=1;jettySize=auto;html=1;entryX=0.5;entryY=0;entryDx=0;entryDy=0;" edge="1" parent="4wMntyXqbNmmh1sVlkXW-2" source="QsdAMPa55JvfObeUrHbz-48" target="QsdAMPa55JvfObeUrHbz-52">
          <mxGeometry relative="1" as="geometry" />
        </mxCell>
        <mxCell id="QsdAMPa55JvfObeUrHbz-48" value="获取URL，生成二维码供用户扫码" style="whiteSpace=wrap;html=1;" vertex="1" parent="4wMntyXqbNmmh1sVlkXW-2">
          <mxGeometry x="65" y="1259" width="120" height="60" as="geometry" />
        </mxCell>
        <mxCell id="QsdAMPa55JvfObeUrHbz-52" value="开始" style="ellipse;whiteSpace=wrap;html=1;" vertex="1" parent="4wMntyXqbNmmh1sVlkXW-2">
          <mxGeometry x="78.75" y="1359" width="92.5" height="50" as="geometry" />
        </mxCell>
        <mxCell id="4wMntyXqbNmmh1sVlkXW-6" value="供应链金融" style="swimlane;html=1;startSize=20;" parent="4wMntyXqbNmmh1sVlkXW-1" vertex="1">
          <mxGeometry x="250" y="20" width="540" height="1430" as="geometry" />
        </mxCell>
        <mxCell id="QsdAMPa55JvfObeUrHbz-2" value="" style="edgeStyle=orthogonalEdgeStyle;rounded=0;orthogonalLoop=1;jettySize=auto;html=1;" edge="1" parent="4wMntyXqbNmmh1sVlkXW-6" source="BpJJxFKYYyhjpekZ5hfJ-1" target="QsdAMPa55JvfObeUrHbz-1">
          <mxGeometry relative="1" as="geometry" />
        </mxCell>
        <mxCell id="BpJJxFKYYyhjpekZ5hfJ-1" value="接收、解析参数，取出明文plain,密文signature" style="whiteSpace=wrap;html=1;" vertex="1" parent="4wMntyXqbNmmh1sVlkXW-6">
          <mxGeometry x="160" y="146" width="135" height="60" as="geometry" />
        </mxCell>
        <mxCell id="QsdAMPa55JvfObeUrHbz-4" value="是" style="edgeStyle=orthogonalEdgeStyle;rounded=0;orthogonalLoop=1;jettySize=auto;html=1;" edge="1" parent="4wMntyXqbNmmh1sVlkXW-6" source="QsdAMPa55JvfObeUrHbz-1">
          <mxGeometry relative="1" as="geometry">
            <mxPoint x="227.5" y="341" as="targetPoint" />
          </mxGeometry>
        </mxCell>
        <mxCell id="QsdAMPa55JvfObeUrHbz-8" value="" style="edgeStyle=orthogonalEdgeStyle;rounded=0;orthogonalLoop=1;jettySize=auto;html=1;" edge="1" parent="4wMntyXqbNmmh1sVlkXW-6" source="QsdAMPa55JvfObeUrHbz-1" target="QsdAMPa55JvfObeUrHbz-7">
          <mxGeometry relative="1" as="geometry" />
        </mxCell>
        <mxCell id="QsdAMPa55JvfObeUrHbz-10" value="throw 验签失败" style="edgeLabel;html=1;align=center;verticalAlign=middle;resizable=0;points=[];" vertex="1" connectable="0" parent="QsdAMPa55JvfObeUrHbz-8">
          <mxGeometry x="-0.2285" relative="1" as="geometry">
            <mxPoint x="86" y="-10" as="offset" />
          </mxGeometry>
        </mxCell>
        <mxCell id="QsdAMPa55JvfObeUrHbz-26" value="否" style="edgeLabel;html=1;align=center;verticalAlign=middle;resizable=0;points=[];" vertex="1" connectable="0" parent="QsdAMPa55JvfObeUrHbz-8">
          <mxGeometry x="-0.377" relative="1" as="geometry">
            <mxPoint as="offset" />
          </mxGeometry>
        </mxCell>
        <mxCell id="QsdAMPa55JvfObeUrHbz-1" value="验签成功？" style="rhombus;whiteSpace=wrap;html=1;" vertex="1" parent="4wMntyXqbNmmh1sVlkXW-6">
          <mxGeometry x="187.5" y="241" width="80" height="50" as="geometry" />
        </mxCell>
        <mxCell id="QsdAMPa55JvfObeUrHbz-7" value="" style="shape=waypoint;sketch=0;size=6;pointerEvents=1;points=[];fillColor=default;resizable=0;rotatable=0;perimeter=centerPerimeter;snapToPoint=1;" vertex="1" parent="4wMntyXqbNmmh1sVlkXW-6">
          <mxGeometry x="422.5" y="256" width="20" height="20" as="geometry" />
        </mxCell>
        <mxCell id="QsdAMPa55JvfObeUrHbz-13" value="" style="edgeStyle=orthogonalEdgeStyle;rounded=0;orthogonalLoop=1;jettySize=auto;html=1;" edge="1" parent="4wMntyXqbNmmh1sVlkXW-6" source="QsdAMPa55JvfObeUrHbz-11" target="QsdAMPa55JvfObeUrHbz-12">
          <mxGeometry relative="1" as="geometry" />
        </mxCell>
        <mxCell id="QsdAMPa55JvfObeUrHbz-27" value="失败" style="edgeLabel;html=1;align=center;verticalAlign=middle;resizable=0;points=[];" vertex="1" connectable="0" parent="QsdAMPa55JvfObeUrHbz-13">
          <mxGeometry x="-0.4255" y="1" relative="1" as="geometry">
            <mxPoint as="offset" />
          </mxGeometry>
        </mxCell>
        <mxCell id="QsdAMPa55JvfObeUrHbz-18" value="成功" style="edgeStyle=orthogonalEdgeStyle;rounded=0;orthogonalLoop=1;jettySize=auto;html=1;" edge="1" parent="4wMntyXqbNmmh1sVlkXW-6" source="QsdAMPa55JvfObeUrHbz-11" target="QsdAMPa55JvfObeUrHbz-17">
          <mxGeometry relative="1" as="geometry" />
        </mxCell>
        <mxCell id="QsdAMPa55JvfObeUrHbz-11" value="参数校验" style="rhombus;whiteSpace=wrap;html=1;" vertex="1" parent="4wMntyXqbNmmh1sVlkXW-6">
          <mxGeometry x="187.5" y="341" width="80" height="50" as="geometry" />
        </mxCell>
        <mxCell id="QsdAMPa55JvfObeUrHbz-12" value="" style="shape=waypoint;sketch=0;size=6;pointerEvents=1;points=[];fillColor=default;resizable=0;rotatable=0;perimeter=centerPerimeter;snapToPoint=1;" vertex="1" parent="4wMntyXqbNmmh1sVlkXW-6">
          <mxGeometry x="422.5" y="356" width="20" height="20" as="geometry" />
        </mxCell>
        <mxCell id="QsdAMPa55JvfObeUrHbz-14" value="throw 参数校验异常" style="text;html=1;align=center;verticalAlign=middle;resizable=0;points=[];autosize=1;strokeColor=none;fillColor=none;" vertex="1" parent="4wMntyXqbNmmh1sVlkXW-6">
          <mxGeometry x="352.5" y="341" width="130" height="30" as="geometry" />
        </mxCell>
        <mxCell id="QsdAMPa55JvfObeUrHbz-20" value="" style="edgeStyle=orthogonalEdgeStyle;rounded=0;orthogonalLoop=1;jettySize=auto;html=1;" edge="1" parent="4wMntyXqbNmmh1sVlkXW-6" source="QsdAMPa55JvfObeUrHbz-17" target="QsdAMPa55JvfObeUrHbz-19">
          <mxGeometry relative="1" as="geometry" />
        </mxCell>
        <mxCell id="QsdAMPa55JvfObeUrHbz-21" value="throw 订单已存在" style="edgeLabel;html=1;align=center;verticalAlign=middle;resizable=0;points=[];" vertex="1" connectable="0" parent="QsdAMPa55JvfObeUrHbz-20">
          <mxGeometry x="-0.4216" y="2" relative="1" as="geometry">
            <mxPoint x="107" y="-8" as="offset" />
          </mxGeometry>
        </mxCell>
        <mxCell id="QsdAMPa55JvfObeUrHbz-23" value="" style="edgeStyle=orthogonalEdgeStyle;rounded=0;orthogonalLoop=1;jettySize=auto;html=1;" edge="1" parent="4wMntyXqbNmmh1sVlkXW-6" source="QsdAMPa55JvfObeUrHbz-17" target="QsdAMPa55JvfObeUrHbz-22">
          <mxGeometry relative="1" as="geometry" />
        </mxCell>
        <mxCell id="QsdAMPa55JvfObeUrHbz-17" value="幂等校验" style="rhombus;whiteSpace=wrap;html=1;" vertex="1" parent="4wMntyXqbNmmh1sVlkXW-6">
          <mxGeometry x="187.5" y="431" width="80" height="50" as="geometry" />
        </mxCell>
        <mxCell id="QsdAMPa55JvfObeUrHbz-19" value="" style="shape=waypoint;sketch=0;size=6;pointerEvents=1;points=[];fillColor=default;resizable=0;rotatable=0;perimeter=centerPerimeter;snapToPoint=1;" vertex="1" parent="4wMntyXqbNmmh1sVlkXW-6">
          <mxGeometry x="422.5" y="446" width="20" height="20" as="geometry" />
        </mxCell>
        <mxCell id="QsdAMPa55JvfObeUrHbz-22" value="查询金融中台对应授信订单" style="whiteSpace=wrap;html=1;" vertex="1" parent="4wMntyXqbNmmh1sVlkXW-6">
          <mxGeometry x="167.5" y="521" width="120" height="60" as="geometry" />
        </mxCell>
        <mxCell id="QsdAMPa55JvfObeUrHbz-40" value="" style="edgeStyle=orthogonalEdgeStyle;rounded=0;orthogonalLoop=1;jettySize=auto;html=1;" edge="1" parent="4wMntyXqbNmmh1sVlkXW-6" source="QsdAMPa55JvfObeUrHbz-32" target="QsdAMPa55JvfObeUrHbz-39">
          <mxGeometry relative="1" as="geometry" />
        </mxCell>
        <mxCell id="QsdAMPa55JvfObeUrHbz-55" value="" style="edgeStyle=orthogonalEdgeStyle;rounded=0;orthogonalLoop=1;jettySize=auto;html=1;" edge="1" parent="4wMntyXqbNmmh1sVlkXW-6" source="QsdAMPa55JvfObeUrHbz-32" target="QsdAMPa55JvfObeUrHbz-54">
          <mxGeometry relative="1" as="geometry" />
        </mxCell>
        <mxCell id="QsdAMPa55JvfObeUrHbz-32" value="额度校验？&lt;br&gt;（订单金额&amp;lt;=可用额度）" style="rhombus;whiteSpace=wrap;html=1;" vertex="1" parent="4wMntyXqbNmmh1sVlkXW-6">
          <mxGeometry x="130" y="661" width="195" height="80" as="geometry" />
        </mxCell>
        <mxCell id="QsdAMPa55JvfObeUrHbz-34" value="发起借款申请" style="whiteSpace=wrap;html=1;" vertex="1" parent="4wMntyXqbNmmh1sVlkXW-6">
          <mxGeometry x="167.5" y="900" width="120" height="60" as="geometry" />
        </mxCell>
        <mxCell id="QsdAMPa55JvfObeUrHbz-39" value="修改授信状态为初始状态，等待定时补单" style="whiteSpace=wrap;html=1;" vertex="1" parent="4wMntyXqbNmmh1sVlkXW-6">
          <mxGeometry x="386.5" y="671" width="120" height="60" as="geometry" />
        </mxCell>
        <mxCell id="QsdAMPa55JvfObeUrHbz-47" value="" style="edgeStyle=orthogonalEdgeStyle;rounded=0;orthogonalLoop=1;jettySize=auto;html=1;" edge="1" parent="4wMntyXqbNmmh1sVlkXW-6" source="QsdAMPa55JvfObeUrHbz-42" target="QsdAMPa55JvfObeUrHbz-46">
          <mxGeometry relative="1" as="geometry" />
        </mxCell>
        <mxCell id="QsdAMPa55JvfObeUrHbz-42" value="解析借款结果中网商返回的URL" style="whiteSpace=wrap;html=1;" vertex="1" parent="4wMntyXqbNmmh1sVlkXW-6">
          <mxGeometry x="167.5" y="1020" width="120" height="60" as="geometry" />
        </mxCell>
        <mxCell id="QsdAMPa55JvfObeUrHbz-46" value="返回参数URL" style="whiteSpace=wrap;html=1;" vertex="1" parent="4wMntyXqbNmmh1sVlkXW-6">
          <mxGeometry x="167.5" y="1130" width="120" height="60" as="geometry" />
        </mxCell>
        <mxCell id="QsdAMPa55JvfObeUrHbz-56" value="" style="edgeStyle=orthogonalEdgeStyle;rounded=0;orthogonalLoop=1;jettySize=auto;html=1;" edge="1" parent="4wMntyXqbNmmh1sVlkXW-6" source="QsdAMPa55JvfObeUrHbz-54" target="QsdAMPa55JvfObeUrHbz-34">
          <mxGeometry relative="1" as="geometry" />
        </mxCell>
        <mxCell id="QsdAMPa55JvfObeUrHbz-54" value="借款订单入库" style="whiteSpace=wrap;html=1;" vertex="1" parent="4wMntyXqbNmmh1sVlkXW-6">
          <mxGeometry x="167.5" y="790" width="120" height="60" as="geometry" />
        </mxCell>
        <mxCell id="4wMntyXqbNmmh1sVlkXW-8" value="金融中台" style="swimlane;html=1;startSize=20;" parent="4wMntyXqbNmmh1sVlkXW-1" vertex="1">
          <mxGeometry x="790" y="20" width="230" height="1430" as="geometry" />
        </mxCell>
        <mxCell id="QsdAMPa55JvfObeUrHbz-24" value="实时查询授信额度" style="whiteSpace=wrap;html=1;" vertex="1" parent="4wMntyXqbNmmh1sVlkXW-8">
          <mxGeometry x="50" y="521" width="120" height="60" as="geometry" />
        </mxCell>
        <mxCell id="QsdAMPa55JvfObeUrHbz-36" value="借款申请接口" style="whiteSpace=wrap;html=1;" vertex="1" parent="4wMntyXqbNmmh1sVlkXW-8">
          <mxGeometry x="50" y="900" width="120" height="60" as="geometry" />
        </mxCell>
        <mxCell id="BpJJxFKYYyhjpekZ5hfJ-2" value="" style="edgeStyle=orthogonalEdgeStyle;rounded=0;orthogonalLoop=1;jettySize=auto;html=1;" edge="1" parent="4wMntyXqbNmmh1sVlkXW-1" source="4wMntyXqbNmmh1sVlkXW-4" target="BpJJxFKYYyhjpekZ5hfJ-1">
          <mxGeometry relative="1" as="geometry" />
        </mxCell>
        <mxCell id="QsdAMPa55JvfObeUrHbz-25" value="" style="edgeStyle=orthogonalEdgeStyle;rounded=0;orthogonalLoop=1;jettySize=auto;html=1;" edge="1" parent="4wMntyXqbNmmh1sVlkXW-1" source="QsdAMPa55JvfObeUrHbz-22" target="QsdAMPa55JvfObeUrHbz-24">
          <mxGeometry relative="1" as="geometry" />
        </mxCell>
        <mxCell id="QsdAMPa55JvfObeUrHbz-28" value="url: /credit/v1/queryRealtimeCreditQuota" style="edgeLabel;html=1;align=center;verticalAlign=middle;resizable=0;points=[];" vertex="1" connectable="0" parent="QsdAMPa55JvfObeUrHbz-25">
          <mxGeometry x="-0.0921" y="2" relative="1" as="geometry">
            <mxPoint x="9" y="-13" as="offset" />
          </mxGeometry>
        </mxCell>
        <mxCell id="QsdAMPa55JvfObeUrHbz-33" value="" style="edgeStyle=orthogonalEdgeStyle;rounded=0;orthogonalLoop=1;jettySize=auto;html=1;" edge="1" parent="4wMntyXqbNmmh1sVlkXW-1" source="QsdAMPa55JvfObeUrHbz-24" target="QsdAMPa55JvfObeUrHbz-32">
          <mxGeometry relative="1" as="geometry">
            <Array as="points">
              <mxPoint x="897" y="630" />
              <mxPoint x="480" y="630" />
            </Array>
          </mxGeometry>
        </mxCell>
        <mxCell id="QsdAMPa55JvfObeUrHbz-37" value="" style="edgeStyle=orthogonalEdgeStyle;rounded=0;orthogonalLoop=1;jettySize=auto;html=1;" edge="1" parent="4wMntyXqbNmmh1sVlkXW-1" source="QsdAMPa55JvfObeUrHbz-34" target="QsdAMPa55JvfObeUrHbz-36">
          <mxGeometry relative="1" as="geometry" />
        </mxCell>
        <mxCell id="QsdAMPa55JvfObeUrHbz-43" value="" style="edgeStyle=orthogonalEdgeStyle;rounded=0;orthogonalLoop=1;jettySize=auto;html=1;entryX=0.5;entryY=0;entryDx=0;entryDy=0;" edge="1" parent="4wMntyXqbNmmh1sVlkXW-1" source="QsdAMPa55JvfObeUrHbz-36" target="QsdAMPa55JvfObeUrHbz-42">
          <mxGeometry relative="1" as="geometry">
            <Array as="points">
              <mxPoint x="897" y="1009" />
              <mxPoint x="477" y="1009" />
            </Array>
          </mxGeometry>
        </mxCell>
        <mxCell id="QsdAMPa55JvfObeUrHbz-49" value="" style="edgeStyle=orthogonalEdgeStyle;rounded=0;orthogonalLoop=1;jettySize=auto;html=1;exitX=0.5;exitY=1;exitDx=0;exitDy=0;" edge="1" parent="4wMntyXqbNmmh1sVlkXW-1" source="QsdAMPa55JvfObeUrHbz-46" target="QsdAMPa55JvfObeUrHbz-48">
          <mxGeometry relative="1" as="geometry">
            <Array as="points">
              <mxPoint x="478" y="1249" />
              <mxPoint x="125" y="1249" />
            </Array>
          </mxGeometry>
        </mxCell>
        <mxCell id="QsdAMPa55JvfObeUrHbz-38" value="url: /v1/lmc/loan/enterprise/apply" style="text;html=1;align=center;verticalAlign=middle;resizable=0;points=[];autosize=1;strokeColor=none;fillColor=none;" vertex="1" parent="1">
          <mxGeometry x="576.5" y="955" width="200" height="30" as="geometry" />
        </mxCell>
      </root>
    </mxGraphModel>
  </diagram>
  <diagram name="借款结果查询" id="9qeOt9_2nvUjBEc9CzWJ">
    <mxGraphModel dx="770" dy="485" grid="1" gridSize="10" guides="1" tooltips="1" connect="1" arrows="1" fold="1" page="1" pageScale="1" pageWidth="827" pageHeight="1169" math="0" shadow="0">
      <root>
        <mxCell id="hk5Wb2nlaeSH1RcyNxn6-0" />
        <mxCell id="hk5Wb2nlaeSH1RcyNxn6-1" parent="hk5Wb2nlaeSH1RcyNxn6-0" />
        <mxCell id="hk5Wb2nlaeSH1RcyNxn6-2" value="借款结果查询" style="swimlane;html=1;childLayout=stackLayout;resizeParent=1;resizeParentMax=0;startSize=20;" vertex="1" parent="hk5Wb2nlaeSH1RcyNxn6-1">
          <mxGeometry x="54" y="30" width="720" height="1000" as="geometry" />
        </mxCell>
        <mxCell id="hk5Wb2nlaeSH1RcyNxn6-3" value="和动力" style="swimlane;html=1;startSize=20;" vertex="1" parent="hk5Wb2nlaeSH1RcyNxn6-2">
          <mxGeometry y="20" width="210" height="980" as="geometry" />
        </mxCell>
        <mxCell id="hk5Wb2nlaeSH1RcyNxn6-7" value="供应链金融" style="swimlane;html=1;startSize=20;" vertex="1" parent="hk5Wb2nlaeSH1RcyNxn6-2">
          <mxGeometry x="210" y="20" width="290" height="980" as="geometry" />
        </mxCell>
        <mxCell id="hk5Wb2nlaeSH1RcyNxn6-4" value="开始" style="ellipse;whiteSpace=wrap;html=1;" vertex="1" parent="hk5Wb2nlaeSH1RcyNxn6-7">
          <mxGeometry x="103" y="70" width="92.5" height="50" as="geometry" />
        </mxCell>
        <mxCell id="hk5Wb2nlaeSH1RcyNxn6-5" value="借款申请" style="whiteSpace=wrap;html=1;" vertex="1" parent="hk5Wb2nlaeSH1RcyNxn6-7">
          <mxGeometry x="96.75" y="150" width="105" height="50" as="geometry" />
        </mxCell>
        <mxCell id="hk5Wb2nlaeSH1RcyNxn6-6" value="" style="edgeStyle=orthogonalEdgeStyle;rounded=0;orthogonalLoop=1;jettySize=auto;html=1;" edge="1" parent="hk5Wb2nlaeSH1RcyNxn6-7" source="hk5Wb2nlaeSH1RcyNxn6-4" target="hk5Wb2nlaeSH1RcyNxn6-5">
          <mxGeometry relative="1" as="geometry" />
        </mxCell>
        <mxCell id="hk5Wb2nlaeSH1RcyNxn6-9" value="金融中台" style="swimlane;html=1;startSize=20;" vertex="1" parent="hk5Wb2nlaeSH1RcyNxn6-2">
          <mxGeometry x="500" y="20" width="220" height="980" as="geometry" />
        </mxCell>
      </root>
    </mxGraphModel>
  </diagram>
  <diagram name="借款结果定时查询" id="YScf0CGgH8K4O462INo3">
    <mxGraphModel dx="1194" dy="751" grid="1" gridSize="10" guides="1" tooltips="1" connect="1" arrows="1" fold="1" page="1" pageScale="1" pageWidth="827" pageHeight="1169" math="0" shadow="0">
      <root>
        <mxCell id="JfwXoA1LLLNkWOz8xaSI-0" />
        <mxCell id="JfwXoA1LLLNkWOz8xaSI-1" parent="JfwXoA1LLLNkWOz8xaSI-0" />
        <mxCell id="JfwXoA1LLLNkWOz8xaSI-2" value="借款申请" style="swimlane;html=1;childLayout=stackLayout;resizeParent=1;resizeParentMax=0;startSize=20;" vertex="1" parent="JfwXoA1LLLNkWOz8xaSI-1">
          <mxGeometry x="54" y="30" width="720" height="1000" as="geometry" />
        </mxCell>
        <mxCell id="JfwXoA1LLLNkWOz8xaSI-3" value="和动力" style="swimlane;html=1;startSize=20;" vertex="1" parent="JfwXoA1LLLNkWOz8xaSI-2">
          <mxGeometry y="20" width="210" height="980" as="geometry" />
        </mxCell>
        <mxCell id="JfwXoA1LLLNkWOz8xaSI-4" value="开始" style="ellipse;whiteSpace=wrap;html=1;" vertex="1" parent="JfwXoA1LLLNkWOz8xaSI-3">
          <mxGeometry x="58.75" y="70" width="92.5" height="50" as="geometry" />
        </mxCell>
        <mxCell id="JfwXoA1LLLNkWOz8xaSI-5" value="借款申请" style="whiteSpace=wrap;html=1;" vertex="1" parent="JfwXoA1LLLNkWOz8xaSI-3">
          <mxGeometry x="52.5" y="150" width="105" height="50" as="geometry" />
        </mxCell>
        <mxCell id="JfwXoA1LLLNkWOz8xaSI-6" value="" style="edgeStyle=orthogonalEdgeStyle;rounded=0;orthogonalLoop=1;jettySize=auto;html=1;" edge="1" parent="JfwXoA1LLLNkWOz8xaSI-3" source="JfwXoA1LLLNkWOz8xaSI-4" target="JfwXoA1LLLNkWOz8xaSI-5">
          <mxGeometry relative="1" as="geometry" />
        </mxCell>
        <mxCell id="JfwXoA1LLLNkWOz8xaSI-7" value="供应链金融" style="swimlane;html=1;startSize=20;" vertex="1" parent="JfwXoA1LLLNkWOz8xaSI-2">
          <mxGeometry x="210" y="20" width="290" height="980" as="geometry" />
        </mxCell>
        <mxCell id="JfwXoA1LLLNkWOz8xaSI-8" value="" style="whiteSpace=wrap;html=1;" vertex="1" parent="JfwXoA1LLLNkWOz8xaSI-7">
          <mxGeometry x="92.5" y="260" width="105" height="50" as="geometry" />
        </mxCell>
        <mxCell id="JfwXoA1LLLNkWOz8xaSI-9" value="金融中台" style="swimlane;html=1;startSize=20;" vertex="1" parent="JfwXoA1LLLNkWOz8xaSI-2">
          <mxGeometry x="500" y="20" width="220" height="980" as="geometry" />
        </mxCell>
        <mxCell id="JfwXoA1LLLNkWOz8xaSI-10" value="" style="edgeStyle=orthogonalEdgeStyle;rounded=0;orthogonalLoop=1;jettySize=auto;html=1;" edge="1" parent="JfwXoA1LLLNkWOz8xaSI-2" source="JfwXoA1LLLNkWOz8xaSI-5" target="JfwXoA1LLLNkWOz8xaSI-8">
          <mxGeometry relative="1" as="geometry">
            <Array as="points">
              <mxPoint x="105" y="250" />
              <mxPoint x="355" y="250" />
            </Array>
          </mxGeometry>
        </mxCell>
      </root>
    </mxGraphModel>
  </diagram>
  <diagram id="W8iJ1Q62N1_o8_bxuRxd" name="借款结果通知">
    <mxGraphModel dx="884" dy="556" grid="1" gridSize="10" guides="1" tooltips="1" connect="1" arrows="1" fold="1" page="1" pageScale="1" pageWidth="827" pageHeight="1169" math="0" shadow="0">
      <root>
        <mxCell id="0" />
        <mxCell id="1" parent="0" />
        <mxCell id="0EeUz-ZE8D3gtyQc3xZo-1" value="借款结果通知" style="swimlane;html=1;childLayout=stackLayout;resizeParent=1;resizeParentMax=0;startSize=20;" vertex="1" parent="1">
          <mxGeometry x="54" y="30" width="720" height="1000" as="geometry" />
        </mxCell>
        <mxCell id="0EeUz-ZE8D3gtyQc3xZo-2" value="和动力" style="swimlane;html=1;startSize=20;" vertex="1" parent="0EeUz-ZE8D3gtyQc3xZo-1">
          <mxGeometry y="20" width="210" height="980" as="geometry" />
        </mxCell>
        <mxCell id="0EeUz-ZE8D3gtyQc3xZo-6" value="供应链金融" style="swimlane;html=1;startSize=20;" vertex="1" parent="0EeUz-ZE8D3gtyQc3xZo-1">
          <mxGeometry x="210" y="20" width="290" height="980" as="geometry" />
        </mxCell>
        <mxCell id="0EeUz-ZE8D3gtyQc3xZo-11" value="" style="edgeStyle=orthogonalEdgeStyle;rounded=0;orthogonalLoop=1;jettySize=auto;html=1;" edge="1" parent="0EeUz-ZE8D3gtyQc3xZo-6" source="0EeUz-ZE8D3gtyQc3xZo-4" target="0EeUz-ZE8D3gtyQc3xZo-10">
          <mxGeometry relative="1" as="geometry" />
        </mxCell>
        <mxCell id="0EeUz-ZE8D3gtyQc3xZo-4" value="接收支付结果" style="whiteSpace=wrap;html=1;" vertex="1" parent="0EeUz-ZE8D3gtyQc3xZo-6">
          <mxGeometry x="97" y="60" width="105" height="50" as="geometry" />
        </mxCell>
        <mxCell id="0EeUz-ZE8D3gtyQc3xZo-10" value="参数校验" style="rhombus;whiteSpace=wrap;html=1;" vertex="1" parent="0EeUz-ZE8D3gtyQc3xZo-6">
          <mxGeometry x="99" y="150" width="100.5" height="55" as="geometry" />
        </mxCell>
        <mxCell id="0EeUz-ZE8D3gtyQc3xZo-8" value="金融中台" style="swimlane;html=1;startSize=20;" vertex="1" parent="0EeUz-ZE8D3gtyQc3xZo-1">
          <mxGeometry x="500" y="20" width="220" height="980" as="geometry" />
        </mxCell>
        <mxCell id="0EeUz-ZE8D3gtyQc3xZo-3" value="开始" style="ellipse;whiteSpace=wrap;html=1;" vertex="1" parent="0EeUz-ZE8D3gtyQc3xZo-8">
          <mxGeometry x="63.75" y="60" width="92.5" height="50" as="geometry" />
        </mxCell>
        <mxCell id="0EeUz-ZE8D3gtyQc3xZo-5" value="" style="edgeStyle=orthogonalEdgeStyle;rounded=0;orthogonalLoop=1;jettySize=auto;html=1;" edge="1" parent="0EeUz-ZE8D3gtyQc3xZo-1" source="0EeUz-ZE8D3gtyQc3xZo-3" target="0EeUz-ZE8D3gtyQc3xZo-4">
          <mxGeometry relative="1" as="geometry" />
        </mxCell>
      </root>
    </mxGraphModel>
  </diagram>
  <diagram id="9xMuZTpqfdYd-6326imf" name="逾期结果接收">
    <mxGraphModel dx="853" dy="536" grid="1" gridSize="10" guides="1" tooltips="1" connect="1" arrows="1" fold="1" page="1" pageScale="1" pageWidth="827" pageHeight="1169" math="0" shadow="0">
      <root>
        <mxCell id="0" />
        <mxCell id="1" parent="0" />
        <mxCell id="RIuTpocE-qcXHxML-0a--1" value="逾期结果推送" style="swimlane;html=1;childLayout=stackLayout;resizeParent=1;resizeParentMax=0;startSize=20;" vertex="1" parent="1">
          <mxGeometry x="54" y="30" width="720" height="550" as="geometry" />
        </mxCell>
        <mxCell id="RIuTpocE-qcXHxML-0a--2" value="和动力" style="swimlane;html=1;startSize=20;" vertex="1" parent="RIuTpocE-qcXHxML-0a--1">
          <mxGeometry y="20" width="210" height="530" as="geometry" />
        </mxCell>
        <mxCell id="RIuTpocE-qcXHxML-0a--3" value="供应链金融" style="swimlane;html=1;startSize=20;" vertex="1" parent="RIuTpocE-qcXHxML-0a--1">
          <mxGeometry x="210" y="20" width="290" height="530" as="geometry" />
        </mxCell>
        <mxCell id="RIuTpocE-qcXHxML-0a--4" value="" style="edgeStyle=orthogonalEdgeStyle;rounded=0;orthogonalLoop=1;jettySize=auto;html=1;" edge="1" parent="RIuTpocE-qcXHxML-0a--3" source="RIuTpocE-qcXHxML-0a--5" target="RIuTpocE-qcXHxML-0a--6">
          <mxGeometry relative="1" as="geometry" />
        </mxCell>
        <mxCell id="RIuTpocE-qcXHxML-0a--5" value="接收逾期消息" style="whiteSpace=wrap;html=1;" vertex="1" parent="RIuTpocE-qcXHxML-0a--3">
          <mxGeometry x="97" y="60" width="105" height="50" as="geometry" />
        </mxCell>
        <mxCell id="RIuTpocE-qcXHxML-0a--11" value="" style="edgeStyle=orthogonalEdgeStyle;rounded=0;orthogonalLoop=1;jettySize=auto;html=1;" edge="1" parent="RIuTpocE-qcXHxML-0a--3" source="RIuTpocE-qcXHxML-0a--6" target="RIuTpocE-qcXHxML-0a--10">
          <mxGeometry relative="1" as="geometry" />
        </mxCell>
        <mxCell id="RIuTpocE-qcXHxML-0a--6" value="参数校验" style="rhombus;whiteSpace=wrap;html=1;" vertex="1" parent="RIuTpocE-qcXHxML-0a--3">
          <mxGeometry x="99" y="150" width="100.5" height="55" as="geometry" />
        </mxCell>
        <mxCell id="Rn0YsHPCnXKDd3Bp0sdZ-2" value="" style="edgeStyle=orthogonalEdgeStyle;rounded=0;orthogonalLoop=1;jettySize=auto;html=1;" edge="1" parent="RIuTpocE-qcXHxML-0a--3" source="RIuTpocE-qcXHxML-0a--10" target="Rn0YsHPCnXKDd3Bp0sdZ-1">
          <mxGeometry relative="1" as="geometry" />
        </mxCell>
        <mxCell id="RIuTpocE-qcXHxML-0a--10" value="逾期订单落库&lt;br&gt;t_overdue_order" style="whiteSpace=wrap;html=1;" vertex="1" parent="RIuTpocE-qcXHxML-0a--3">
          <mxGeometry x="89.25" y="260" width="120" height="60" as="geometry" />
        </mxCell>
        <mxCell id="Rn0YsHPCnXKDd3Bp0sdZ-1" value="结束" style="ellipse;whiteSpace=wrap;html=1;" vertex="1" parent="RIuTpocE-qcXHxML-0a--3">
          <mxGeometry x="103" y="370" width="92.5" height="50" as="geometry" />
        </mxCell>
        <mxCell id="RIuTpocE-qcXHxML-0a--7" value="金融中台" style="swimlane;html=1;startSize=20;" vertex="1" parent="RIuTpocE-qcXHxML-0a--1">
          <mxGeometry x="500" y="20" width="220" height="530" as="geometry" />
        </mxCell>
        <mxCell id="RIuTpocE-qcXHxML-0a--8" value="开始" style="ellipse;whiteSpace=wrap;html=1;" vertex="1" parent="RIuTpocE-qcXHxML-0a--7">
          <mxGeometry x="63.75" y="60" width="92.5" height="50" as="geometry" />
        </mxCell>
        <mxCell id="RIuTpocE-qcXHxML-0a--9" value="" style="edgeStyle=orthogonalEdgeStyle;rounded=0;orthogonalLoop=1;jettySize=auto;html=1;" edge="1" parent="RIuTpocE-qcXHxML-0a--1" source="RIuTpocE-qcXHxML-0a--8" target="RIuTpocE-qcXHxML-0a--5">
          <mxGeometry relative="1" as="geometry" />
        </mxCell>
      </root>
    </mxGraphModel>
  </diagram>
</mxfile>
